<?xml version="1.0" encoding="UTF-8"?>
<svg height="16px" viewBox="0 0 16 16" width="16px" xmlns="http://www.w3.org/2000/svg">
  <path d="M 8,1 C 7.4477153,1 7,1.4477153 7,2 V 3 C 7,3.5522847 7.4477153,4 8,4 C 8.5522847,4 9,3.5522847 9,3 V 2 C 9,1.4477153 8.5522847,1 8,1 Z M 3.2928932,3.2928932 C 3.1053568,3.1053568 2.8510028,3 2.5857864,3 C 2.32057,3 2.066216,3.1053568 1.8786797,3.2928932 C 1.497909,3.6736636 1.497909,4.2868446 1.8786797,4.667615 L 2.5857864,5.3747217 C 2.9665568,5.7554922 3.5797378,5.7554922 3.9605082,5.3747217 C 4.3412787,4.9939513 4.3412787,4.3807703 3.9605082,4 L 3.2928932,3.2928932 Z M 12.707107,3.2928932 C 12.494614,3.2928932 12.295936,3.3625679 12.133884,3.5246201 L 11.426777,4.2317268 C 11.045994,4.6125096 11.045994,5.2256906 11.426777,5.6064735 C 11.80756,5.9872563 12.420741,5.9872563 12.801524,5.6064735 L 13.50863,4.8993668 C 13.889413,4.518584 13.889413,3.905403 13.50863,3.5246201 C 13.346577,3.3625679 13.1479,3.2928932 12.933203,3.2928932 C 12.857594,3.2928932 12.781985,3.2928932 12.707107,3.2928932 Z M 8,5 C 5.790861,5 4,6.790861 4,9 C 4,11.209139 5.790861,13 8,13 C 10.209139,13 12,11.209139 12,9 C 12,6.790861 10.209139,5 8,5 Z M 8,7 C 9.1045695,7 10,7.8954305 10,9 C 10,10.104569 9.1045695,11 8,11 C 6.8954305,11 6,10.104569 6,9 C 6,7.8954305 6.8954305,7 8,7 Z M 2,8 C 1.4477153,8 1,8.4477153 1,9 C 1,9.5522847 1.4477153,10 2,10 H 3 C 3.5522847,10 4,9.5522847 4,9 C 4,8.4477153 3.5522847,8 3,8 H 2 Z M 13,8 C 12.447715,8 12,8.4477153 12,9 C 12,9.5522847 12.447715,10 13,10 H 14 C 14.552285,10 15,9.5522847 15,9 C 15,8.4477153 14.552285,8 14,8 H 13 Z M 3.2928932,11.292893 C 3.1053568,11.105357 2.8510028,11 2.5857864,11 C 2.32057,11 2.066216,11.105357 1.8786797,11.292893 L 1.8786797,11.292893 C 1.497909,11.673664 1.497909,12.286845 1.8786797,12.667615 L 2.5857864,13.374722 C 2.9665568,13.755492 3.5797378,13.755492 3.9605082,13.374722 C 4.3412787,12.993951 4.3412787,12.38077 3.9605082,12 L 3.2928932,11.292893 Z M 12.707107,11.292893 C 12.494614,11.292893 12.295936,11.362568 12.133884,11.52462 L 11.426777,12.231727 C 11.045994,12.61251 11.045994,13.225691 11.426777,13.606474 C 11.80756,13.987256 12.420741,13.987256 12.801524,13.606474 L 13.50863,12.899367 C 13.889413,12.518584 13.889413,11.905403 13.50863,11.52462 C 13.346577,11.362568 13.1479,11.292893 12.933203,11.292893 C 12.857594,11.292893 12.781985,11.292893 12.707107,11.292893 Z M 8,12 C 7.4477153,12 7,12.447715 7,13 V 14 C 7,14.552285 7.4477153,15 8,15 C 8.5522847,15 9,14.552285 9,14 V 13 C 9,12.447715 8.5522847,12 8,12 Z" fill="currentColor"/>
</svg>