<svg xmlns="http://www.w3.org/2000/svg" width="16" height="16" viewBox="0 0 16 16">
  <path
    fill="currentColor"
    d="M2.75 3A1.75 1.75 0 0 0 1 4.75v6.5C1 12.216 1.784 13 2.75 13h10.5A1.75 1.75 0 0 0 15 11.25v-6.5A1.75 1.75 0 0 0 13.25 3Zm0 1.5h10.5a.25.25 0 0 1 .25.25v6.5a.25.25 0 0 1-.25.25H2.75a.25.25 0 0 1-.25-.25v-6.5a.25.25 0 0 1 .25-.25Zm1 1.25a.75.75 0 0 0-.53 1.28L4.69 8.5 3.22 9.97a.75.75 0 1 0 1.06 1.06l2-2a.75.75 0 0 0 0-1.06l-2-2a.75.75 0 0 0-.53-.22Zm4.5 3a.75.75 0 0 0 0 1.5h3a.75.75 0 0 0 0-1.5Z"
  />
</svg>
