<?xml version="1.0" encoding="UTF-8"?>
<svg height="16px" viewBox="0 0 16 16" width="16px" xmlns="http://www.w3.org/2000/svg">
  <path d="M 8,0 C 7.4477153,0 7,0.4477153 7,1 V 2 C 7,2.5522847 7.4477153,3 8,3 C 8.5522847,3 9,2.5522847 9,2 V 1 C 9,0.4477153 8.5522847,0 8,0 Z M 2.5857864,2.0039062 C 2.32057,2.0039062 2.066216,2.1053568 1.8786797,2.2928932 C 1.497909,2.6736636 1.497909,3.2868446 1.8786797,3.667615 L 2.5857864,4.3747217 C 2.9665568,4.7554922 3.5797378,4.7554922 3.9605082,4.3747217 C 4.3412787,3.9939513 4.3412787,3.3807703 3.9605082,3 L 3.2534015,2.2928932 C 3.0658651,2.1053568 2.8115112,2.0039062 2.5857864,2.0039062 Z M 13.414214,2.0039062 C 13.188489,2.0039062 12.934135,2.1053568 12.746598,2.2928932 L 12.039492,3 C 11.658721,3.3807703 11.658721,3.9939513 12.039492,4.3747217 C 12.420262,4.7554922 13.033443,4.7554922 13.414214,4.3747217 L 14.12132,3.667615 C 14.502091,3.2868446 14.502091,2.6736636 14.12132,2.2928932 C 13.933784,2.1053568 13.67943,2.0039062 13.414214,2.0039062 Z M 8,4 C 5.790861,4 4,5.790861 4,8 C 4,10.209139 5.790861,12 8,12 C 10.209139,12 12,10.209139 12,8 C 12,5.790861 10.209139,4 8,4 Z M 8,6 C 9.1045695,6 10,6.8954305 10,8 C 10,9.1045695 9.1045695,10 8,10 C 6.8954305,10 6,9.1045695 6,8 C 6,6.8954305 6.8954305,6 8,6 Z M 1,8 C 0.4477153,8 0,8.4477153 0,9 C 0,9.5522847 0.4477153,10 1,10 H 2 C 2.5522847,10 3,9.5522847 3,9 C 3,8.4477153 2.5522847,8 2,8 H 1 Z M 14,8 C 13.447715,8 13,8.4477153 13,9 C 13,9.5522847 13.447715,10 14,10 H 15 C 15.552285,10 16,9.5522847 16,9 C 16,8.4477153 15.552285,8 15,8 H 14 Z M 2.5857864,11.292893 C 2.32057,11.292893 2.066216,11.394344 1.8786797,11.58188 L 1.8786797,11.58188 C 1.497909,11.962651 1.497909,12.575832 1.8786797,12.956602 L 2.5857864,13.663709 C 2.9665568,14.044479 3.5797378,14.044479 3.9605082,13.663709 C 4.3412787,13.282938 4.3412787,12.669757 3.9605082,12.288987 L 3.2534015,11.58188 C 3.0658651,11.394344 2.8115112,11.292893 2.5857864,11.292893 Z M 13.414214,11.292893 C 13.188489,11.292893 12.934135,11.394344 12.746598,11.58188 L 12.039492,12.288987 C 11.658721,12.669757 11.658721,13.282938 12.039492,13.663709 C 12.420262,14.044479 13.033443,14.044479 13.414214,13.663709 L 14.12132,12.956602 C 14.502091,12.575832 14.502091,11.962651 14.12132,11.58188 C 13.933784,11.394344 13.67943,11.292893 13.414214,11.292893 Z M 8,13 C 7.4477153,13 7,13.447715 7,14 V 15 C 7,15.552285 7.4477153,16 8,16 C 8.5522847,16 9,15.552285 9,15 V 14 C 9,13.447715 8.5522847,13 8,13 Z" fill="currentColor"/>
</svg>